<svg id="Capa_1" data-name="Capa 1" xmlns="http://www.w3.org/2000/svg" viewBox="0 0 853 240"><defs><style>.cls-1{fill:#70a63b;}.cls-2{font-size:132.89px;fill:#605e57;font-family:GroundControl-Regular, Ground Control;}.cls-3{fill:#e4b244;}.cls-4{font-size:22.26px;fill:#615e57;font-family:Tahoma, Tahoma;letter-spacing:0.4em;}.cls-5{letter-spacing:0.41em;}.cls-6{letter-spacing:0.4em;}.cls-7{letter-spacing:0.38em;}</style></defs><title>Mesa de trabajo 1</title><path class="cls-1" d="M397.59,24.21c-.83,1-2.18,2.74-3.64,5A62.08,62.08,0,0,0,390.12,36c-2.3,4.67-3.47,7-4.31,10.39a32.21,32.21,0,0,0-.57,13,32,32,0,0,0,4.44,11.32A34.75,34.75,0,0,0,401.9,82.25a38.84,38.84,0,0,0,10.4-11.58,31.66,31.66,0,0,0,4.54-13,32.48,32.48,0,0,0-1.44-13,48,48,0,0,0-3.06-7.82c-.79-1.6-1.8-3.27-3.83-6.62a65.46,65.46,0,0,0-3.83-5.89A45.34,45.34,0,0,0,401,20.17C400.09,21.21,398.9,22.57,397.59,24.21Z"/><path class="cls-1" d="M404.37,85.18a35.68,35.68,0,0,0,15.81-20.3,35,35,0,0,0-.52-20.68c1.46.89,10,6.3,12.1,17.12a25.71,25.71,0,0,1-2,15.62,21.59,21.59,0,0,1-8.85,7.63A22.39,22.39,0,0,1,404.37,85.18Z"/><path class="cls-1" d="M382.23,44.78a36,36,0,0,0,2.2,25.9,35.36,35.36,0,0,0,14.57,15c-1.7.34-11.76,2.2-20.72-4.39a26,26,0,0,1-9.21-13,21.81,21.81,0,0,1,1.33-11.73A22.61,22.61,0,0,1,382.23,44.78Z"/><text class="cls-2" transform="translate(20.33 172.11)">PINE<tspan class="cls-3" x="337.66" y="0">A</tspan><tspan x="437.59" y="0">PPLE</tspan></text><text class="cls-4" transform="translate(236.33 213.22) scale(0.98 1)">SO<tspan class="cls-5" x="45.96" y="0">F</tspan><tspan class="cls-6" x="66.79" y="0">T</tspan><tspan class="cls-7" x="88.7" y="0">W</tspan><tspan x="117.17" y="0">ARE SOLUTIONS</tspan></text></svg>